<svg width="1600" height="900" viewBox="0 0 1600 900" xmlns="http://www.w3.org/2000/svg">
  <defs>
    <radialGradient id="purpleBlob" cx="50%" cy="50%" r="50%">
      <stop offset="0%" stop-color="#a78bfa" stop-opacity="0.35"/>
      <stop offset="100%" stop-color="#a78bfa" stop-opacity="0"/>
    </radialGradient>
    <linearGradient id="tangleStroke" x1="0%" y1="0%" x2="100%" y2="100%">
      <stop offset="0%" stop-color="#6b7280"/>
      <stop offset="100%" stop-color="#9ca3af"/>
    </linearGradient>
  </defs>

  <rect width="1600" height="900" fill="#fafaf9"/>

  <ellipse cx="330" cy="560" rx="260" ry="200" fill="url(#purpleBlob)"/>
  <ellipse cx="260" cy="380" rx="180" ry="140" fill="url(#purpleBlob)" opacity="0.6"/>

  <g fill="none" stroke="url(#tangleStroke)" stroke-width="4" stroke-linecap="round" opacity="0.85">
    <path d="M 330 450 C 260 400, 200 420, 210 470 C 220 520, 300 510, 300 460 C 300 410, 210 400, 190 450 C 170 500, 240 550, 300 530 C 360 510, 350 430, 290 420 C 230 410, 190 470, 230 510 C 270 550, 340 540, 350 490"/>
    <path d="M 350 490 C 380 450, 400 500, 360 540 C 320 580, 250 570, 240 520 C 230 470, 300 440, 340 470 C 380 500, 360 560, 300 570 C 240 580, 200 530, 220 480"/>
    <path d="M 220 480 C 210 430, 260 390, 310 400 C 360 410, 380 460, 350 500 C 320 540, 260 540, 250 500 C 240 460, 290 440, 320 460"/>
    <path d="M 320 460 C 340 480, 330 510, 300 520 C 270 530, 250 500, 260 470 C 270 440, 310 430, 330 450"/>
  </g>

  <path d="M 330 450 C 420 470, 500 500, 580 520 C 660 540, 700 545, 740 540"
        fill="none" stroke="#6b7280" stroke-width="4" stroke-linecap="round" opacity="0.85"/>

  <text x="800" y="410" font-family="-apple-system, BlinkMacSystemFont, 'Segoe UI', sans-serif" font-size="96" font-weight="900" fill="#111827">Every topic in.</text>
  <text x="800" y="510" font-family="-apple-system, BlinkMacSystemFont, 'Segoe UI', sans-serif" font-size="96" font-weight="900" fill="#7c3aed">One path out.</text>

  <text x="800" y="580" font-family="-apple-system, BlinkMacSystemFont, 'Segoe UI', sans-serif" font-size="30" font-weight="400" fill="#4b5563">A checklist, not a syllabus.</text>

  <g font-family="-apple-system, BlinkMacSystemFont, 'Segoe UI', sans-serif">
    <rect x="800" y="620" width="220" height="60" rx="16" fill="#f3f0ff" stroke="#7c3aed" stroke-width="1.5"/>
    <text x="820" y="645" font-size="18" font-weight="700" fill="#7c3aed" letter-spacing="1">LEVEL 1</text>
    <text x="820" y="668" font-size="16" font-weight="400" fill="#4b5563">Foundations kept</text>

    <rect x="1040" y="620" width="240" height="60" rx="16" fill="#f9fafb" stroke="#d1d5db" stroke-width="1.5"/>
    <text x="1060" y="645" font-size="18" font-weight="700" fill="#6b7280" letter-spacing="1">LEVEL 2</text>
    <text x="1060" y="668" font-size="16" font-weight="400" fill="#6b7280">Advanced &#8212; later</text>
  </g>

  <text x="800" y="770" font-family="-apple-system, BlinkMacSystemFont, 'Segoe UI', sans-serif" font-size="34" font-weight="800" fill="#7c3aed">@teachmebro</text>
  <text x="800" y="805" font-family="-apple-system, BlinkMacSystemFont, 'Segoe UI', sans-serif" font-size="20" font-weight="600" fill="#374151">Altaf Shaikh</text>
  <text x="800" y="830" font-family="-apple-system, BlinkMacSystemFont, 'Segoe UI', sans-serif" font-size="18" font-weight="400" fill="#9ca3af">AI Engineering</text>
</svg>
